# xmcd CD database file
#
# Track frame offsets:
#	150
#	24610
#	39515
#	63952
#	78642
#	103495
#	128845
#	150900
#	171917
#	190622
#	209277
#	232367
#	251120
#	271130
#
# Disc length: 3879 seconds
#
# Revision: 1
# Processed by: cddbd v1.5.1PL2 Copyright (c) Steve Scherf et al.
# Submitted via: CDex 1.51
#
DISCID=c30f250e
DTITLE=Sara Fishes and Lars Sjösten Quartet - The Soft Edge
DYEAR=2001
DGENRE=Jazz
TTITLE0=Too Beautiful To Be True
TTITLE1=Fine Together
TTITLE2=In Confidence
TTITLE3=Strokes Of The Brush
TTITLE4=Satisfaction's Guaranteed
TTITLE5=Too Late For Love?
TTITLE6=Nothing To Declare
TTITLE7=I Love You So...
TTITLE8=I Have Seen A Miracle
TTITLE9=Nice And Different
TTITLE10=Sture Nordin
TTITLE11=Select Notes
TTITLE12=Quits
TTITLE13=I Hope It's Spring For You
EXTD=YEAR: 2001
EXTT0=
EXTT1=
EXTT2=
EXTT3=
EXTT4=
EXTT5=
EXTT6=
EXTT7=
EXTT8=
EXTT9=
EXTT10=
EXTT11=
EXTT12=
EXTT13=
PLAYORDER=
